<mxfile host="app.diagrams.net" agent="Mozilla/5.0 (Windows NT 10.0; Win64; x64) AppleWebKit/537.36 (KHTML, like Gecko) Chrome/138.0.0.0 Safari/537.36" version="27.1.6">
  <diagram name="Page-1" id="-5PCMbEA47v5Vgmdig3Y">
    <mxGraphModel dx="827" dy="748" grid="1" gridSize="10" guides="1" tooltips="1" connect="1" arrows="1" fold="1" page="1" pageScale="1" pageWidth="827" pageHeight="1169" math="0" shadow="0">
      <root>
        <mxCell id="0" />
        <mxCell id="1" parent="0" />
        <mxCell id="6kPvjrpUiPwS1ez4u8mN-7" style="edgeStyle=orthogonalEdgeStyle;rounded=0;orthogonalLoop=1;jettySize=auto;html=1;exitX=1;exitY=0.5;exitDx=0;exitDy=0;entryX=0;entryY=0.5;entryDx=0;entryDy=0;" edge="1" parent="1" source="6kPvjrpUiPwS1ez4u8mN-2" target="6kPvjrpUiPwS1ez4u8mN-4">
          <mxGeometry relative="1" as="geometry" />
        </mxCell>
        <mxCell id="6kPvjrpUiPwS1ez4u8mN-11" value="Presiona" style="edgeLabel;html=1;align=center;verticalAlign=middle;resizable=0;points=[];" vertex="1" connectable="0" parent="6kPvjrpUiPwS1ez4u8mN-7">
          <mxGeometry x="-0.2115" y="-5" relative="1" as="geometry">
            <mxPoint y="-15" as="offset" />
          </mxGeometry>
        </mxCell>
        <mxCell id="6kPvjrpUiPwS1ez4u8mN-2" value="Cerrado" style="ellipse;whiteSpace=wrap;html=1;" vertex="1" parent="1">
          <mxGeometry x="70" y="260" width="120" height="80" as="geometry" />
        </mxCell>
        <mxCell id="6kPvjrpUiPwS1ez4u8mN-8" style="edgeStyle=orthogonalEdgeStyle;rounded=0;orthogonalLoop=1;jettySize=auto;html=1;exitX=1;exitY=0.5;exitDx=0;exitDy=0;entryX=0;entryY=0.5;entryDx=0;entryDy=0;" edge="1" parent="1" source="6kPvjrpUiPwS1ez4u8mN-4" target="6kPvjrpUiPwS1ez4u8mN-6">
          <mxGeometry relative="1" as="geometry">
            <Array as="points">
              <mxPoint x="480" y="300" />
              <mxPoint x="480" y="300" />
            </Array>
          </mxGeometry>
        </mxCell>
        <mxCell id="6kPvjrpUiPwS1ez4u8mN-12" value="Presiona || llega fin" style="edgeLabel;html=1;align=center;verticalAlign=middle;resizable=0;points=[];" vertex="1" connectable="0" parent="6kPvjrpUiPwS1ez4u8mN-8">
          <mxGeometry x="0.3208" y="5" relative="1" as="geometry">
            <mxPoint x="-24" y="-5" as="offset" />
          </mxGeometry>
        </mxCell>
        <mxCell id="6kPvjrpUiPwS1ez4u8mN-4" value="Subiendo" style="ellipse;whiteSpace=wrap;html=1;" vertex="1" parent="1">
          <mxGeometry x="294" y="260" width="120" height="80" as="geometry" />
        </mxCell>
        <mxCell id="6kPvjrpUiPwS1ez4u8mN-10" style="edgeStyle=orthogonalEdgeStyle;rounded=0;orthogonalLoop=1;jettySize=auto;html=1;exitX=0.5;exitY=1;exitDx=0;exitDy=0;entryX=0.5;entryY=1;entryDx=0;entryDy=0;" edge="1" parent="1" source="6kPvjrpUiPwS1ez4u8mN-5" target="6kPvjrpUiPwS1ez4u8mN-2">
          <mxGeometry relative="1" as="geometry">
            <Array as="points">
              <mxPoint x="810" y="410" />
              <mxPoint x="130" y="410" />
            </Array>
          </mxGeometry>
        </mxCell>
        <mxCell id="6kPvjrpUiPwS1ez4u8mN-14" value="Llega al fondo" style="edgeLabel;html=1;align=center;verticalAlign=middle;resizable=0;points=[];" vertex="1" connectable="0" parent="6kPvjrpUiPwS1ez4u8mN-10">
          <mxGeometry x="-0.0439" relative="1" as="geometry">
            <mxPoint x="-18" y="20" as="offset" />
          </mxGeometry>
        </mxCell>
        <mxCell id="6kPvjrpUiPwS1ez4u8mN-5" value="Bajando" style="ellipse;whiteSpace=wrap;html=1;" vertex="1" parent="1">
          <mxGeometry x="750" y="260" width="120" height="80" as="geometry" />
        </mxCell>
        <mxCell id="6kPvjrpUiPwS1ez4u8mN-9" style="edgeStyle=orthogonalEdgeStyle;rounded=0;orthogonalLoop=1;jettySize=auto;html=1;exitX=1;exitY=0.5;exitDx=0;exitDy=0;entryX=0;entryY=0.5;entryDx=0;entryDy=0;" edge="1" parent="1" source="6kPvjrpUiPwS1ez4u8mN-6" target="6kPvjrpUiPwS1ez4u8mN-5">
          <mxGeometry relative="1" as="geometry" />
        </mxCell>
        <mxCell id="6kPvjrpUiPwS1ez4u8mN-13" value="Presiona" style="edgeLabel;html=1;align=center;verticalAlign=middle;resizable=0;points=[];" vertex="1" connectable="0" parent="6kPvjrpUiPwS1ez4u8mN-9">
          <mxGeometry x="-0.4" y="1" relative="1" as="geometry">
            <mxPoint x="17" y="-9" as="offset" />
          </mxGeometry>
        </mxCell>
        <mxCell id="6kPvjrpUiPwS1ez4u8mN-6" value="Frenado" style="ellipse;whiteSpace=wrap;html=1;" vertex="1" parent="1">
          <mxGeometry x="520" y="260" width="120" height="80" as="geometry" />
        </mxCell>
      </root>
    </mxGraphModel>
  </diagram>
</mxfile>
